<svg width="32" height="32" viewBox="0 0 32 32" fill="none" xmlns="http://www.w3.org/2000/svg">
<path fill-rule="evenodd" clip-rule="evenodd" d="M26.9142 18.8785C27.2487 17.6964 27.4286 16.4421 27.4286 15.1429C27.4286 8.04211 22.056 2.28577 15.4286 2.28577C8.80117 2.28577 3.42859 8.04211 3.42859 15.1429C3.42859 22.2437 8.80117 28.0001 15.4286 28.0001C16.0109 28.0001 16.5835 27.9556 17.1436 27.8697C17.2133 22.8804 21.2796 18.8573 26.2855 18.8573C26.4968 18.8573 26.7065 18.8644 26.9142 18.8785Z" fill="#2E62D9"/>
<g style="mix-blend-mode:multiply">
<path fill-rule="evenodd" clip-rule="evenodd" d="M30.2857 16.5715C30.2857 9.62854 24.5294 4.00012 17.4286 4.00012C10.3277 4.00012 4.57141 9.62854 4.57141 16.5716C4.57141 23.5146 10.3278 29.143 17.4286 29.143C18.064 29.143 18.6886 29.0979 19.2994 29.0109C19.0125 28.1548 18.8571 27.2385 18.8571 26.2859C18.8571 21.552 22.6947 17.7144 27.4286 17.7144C28.3922 17.7144 29.3187 17.8734 30.1832 18.1667C30.2508 17.6443 30.2857 17.1119 30.2857 16.5715Z" fill="#FC5454"/>
</g>
<rect x="15.4862" y="15.8492" width="4.97251" height="1.71429" rx="0.857143" transform="rotate(30.9224 15.4862 15.8492)" fill="white"/>
<rect x="16.5713" y="9.14294" width="8.57143" height="1.71429" rx="0.857143" transform="rotate(90 16.5713 9.14294)" fill="white"/>
<path d="M29.7141 31.143H23.9998C23.2108 31.143 22.5713 30.5034 22.5713 29.7144V22.8573C22.5713 22.0683 23.2108 21.4287 23.9998 21.4287H28.857V22.8572C28.857 23.6462 29.4966 24.2858 30.2855 24.2858H31.1427V29.7144C31.1427 30.5034 30.5031 31.143 29.7141 31.143Z" stroke="#2E62D9" stroke-width="1.71429"/>
<path d="M25.1427 25.1429H26.857" stroke="#2E62D9" stroke-width="1.14286"/>
<path d="M25.1427 27.4286H27.9998" stroke="#2E62D9" stroke-width="1.14286"/>
</svg>
