<svg width="32" height="32" viewBox="0 0 32 32" fill="none" xmlns="http://www.w3.org/2000/svg">
<path fill-rule="evenodd" clip-rule="evenodd" d="M26.9143 18.8784C27.2488 17.6963 27.4287 16.442 27.4287 15.1428C27.4287 8.04198 22.0561 2.28564 15.4287 2.28564C8.80129 2.28564 3.42871 8.04198 3.42871 15.1428C3.42871 22.2436 8.80129 27.9999 15.4287 27.9999C16.011 27.9999 16.5837 27.9555 17.1438 27.8696C17.2136 22.8803 21.2799 18.8572 26.2858 18.8572C26.497 18.8572 26.7066 18.8643 26.9143 18.8784Z" fill="#2E62D9"/>
<g style="mix-blend-mode:multiply">
<path fill-rule="evenodd" clip-rule="evenodd" d="M30.2859 16.5714C30.2859 9.62838 24.5296 3.99996 17.4288 3.99997C10.328 3.99997 4.57161 9.62839 4.57161 16.5714C4.57161 23.5144 10.328 29.1428 17.4288 29.1428C18.0642 29.1428 18.6888 29.0978 19.2995 29.0107C19.0127 28.1547 18.8573 27.2383 18.8573 26.2857C18.8573 21.5518 22.6948 17.7143 27.4287 17.7143C28.3923 17.7143 29.3188 17.8733 30.1834 18.1665C30.251 17.6441 30.2859 17.1117 30.2859 16.5714Z" fill="#FC5454"/>
</g>
<rect x="12.8586" y="13.9202" width="4.97251" height="1.71429" rx="0.857143" transform="rotate(44.9803 12.8586 13.9202)" fill="white"/>
<rect x="22.0969" y="11.848" width="9.56339" height="1.71429" rx="0.857143" transform="rotate(135.291 22.0969 11.848)" fill="white"/>
<path d="M29.7144 31.1428H24.0001C23.2111 31.1428 22.5715 30.5032 22.5715 29.7143V22.8571C22.5715 22.0681 23.2111 21.4286 24.0001 21.4286H28.8572V22.8571C28.8572 23.6461 29.4968 24.2857 30.2858 24.2857H31.1429V29.7143C31.1429 30.5032 30.5033 31.1428 29.7144 31.1428Z" stroke="#2E62D9" stroke-width="1.71429"/>
<path d="M25.1428 25.1428H26.8571" stroke="#2E62D9" stroke-width="1.14286"/>
<path d="M25.1428 27.4286H28" stroke="#2E62D9" stroke-width="1.14286"/>
</svg>
