<svg width="24" height="24" viewBox="0 0 24 24" fill="none" xmlns="http://www.w3.org/2000/svg">
<g filter="url(#filter0_i_215_2489)">
<path fill-rule="evenodd" clip-rule="evenodd" d="M14 6C14 7.10457 13.1046 8 12 8C10.8954 8 10 7.10457 10 6C10 4.89543 10.8954 4 12 4C13.1046 4 14 4.89543 14 6ZM13 9.87398C14.7252 9.42994 16 7.86384 16 6C16 3.79086 14.2091 2 12 2C9.79086 2 8 3.79086 8 6C8 7.86384 9.27477 9.42994 11 9.87398V14V16V17V19L11 21H13V19H15V17H13V16H17V14H13L13 9.87398Z" fill="#222835"/>
</g>
<defs>
<filter id="filter0_i_215_2489" x="0" y="0" width="24" height="28" filterUnits="userSpaceOnUse" color-interpolation-filters="sRGB">
<feFlood flood-opacity="0" result="BackgroundImageFix"/>
<feBlend mode="normal" in="SourceGraphic" in2="BackgroundImageFix" result="shape"/>
<feColorMatrix in="SourceAlpha" type="matrix" values="0 0 0 0 0 0 0 0 0 0 0 0 0 0 0 0 0 0 127 0" result="hardAlpha"/>
<feOffset dy="4"/>
<feGaussianBlur stdDeviation="2"/>
<feComposite in2="hardAlpha" operator="arithmetic" k2="-1" k3="1"/>
<feColorMatrix type="matrix" values="0 0 0 0 0 0 0 0 0 0 0 0 0 0 0 0 0 0 0.25 0"/>
<feBlend mode="normal" in2="shape" result="effect1_innerShadow_215_2489"/>
</filter>
</defs>
</svg>
