<svg width="123" height="30" viewBox="0 0 123 30" fill="none" xmlns="http://www.w3.org/2000/svg">
<path fill-rule="evenodd" clip-rule="evenodd" d="M50.906 20.877C53.9836 20.877 56.4541 18.4535 56.4541 15.3135C56.4541 12.1735 53.9836 9.75 50.906 9.75C47.8284 9.75 45.358 12.1735 45.358 15.3135C45.358 18.4535 47.8284 20.877 50.906 20.877ZM50.906 17.8002C49.5452 17.8002 48.4984 16.8098 48.4984 15.3135C48.4984 13.8173 49.5452 12.8268 50.906 12.8268C52.2669 12.8268 53.3137 13.8173 53.3137 15.3135C53.3137 16.8098 52.2669 17.8002 50.906 17.8002ZM61.4288 11.0355C62.1197 10.2347 63.1456 9.75 64.5483 9.75C67.2909 9.75 69.552 12.1735 69.552 15.3135C69.552 18.4535 67.2909 20.877 64.5483 20.877C64.5374 20.877 64.5187 20.8779 64.4929 20.8792C64.168 20.895 62.7119 20.9659 61.4288 19.98V23.8506H58.2884V10.045H61.4288V11.0355ZM61.4288 15.3135C61.4288 16.894 62.4756 17.8845 63.9202 17.8845C65.3648 17.8845 66.4116 16.894 66.4116 15.3135C66.4116 13.733 65.3648 12.7425 63.9202 12.7425C62.4756 12.7425 61.4288 13.733 61.4288 15.3135ZM87.7598 11.0355C88.4507 10.2347 89.4766 9.75 90.8793 9.75C93.6219 9.75 95.883 12.1735 95.883 15.3135C95.883 18.4535 93.6219 20.877 90.8793 20.877C90.8684 20.877 90.8497 20.8779 90.8239 20.8792C90.499 20.895 89.0429 20.9659 87.7598 19.98V23.8506H84.6194V10.045H87.7598V11.0355ZM87.7598 15.3135C87.7598 16.894 88.8066 17.8845 90.2512 17.8845C91.6958 17.8845 92.7426 16.894 92.7426 15.3135C92.7426 13.733 91.6958 12.7425 90.2512 12.7425C88.8066 12.7425 87.7598 13.733 87.7598 15.3135ZM113.15 11.2283V9.98149H110.01V20.755H113.15V15.9923C113.15 13.906 115.115 13.4754 116.291 13.4754V10.0073C114.972 10.0073 113.764 10.4004 113.15 11.2283ZM100.644 16.8144H108.076C108.16 16.414 108.201 15.9926 108.201 15.55C108.201 12.3679 105.94 9.98651 102.884 9.98651C99.5758 9.98651 97.3147 12.41 97.3147 15.55C97.3147 18.69 99.534 21.1135 103.114 21.1135C105.676 21.1135 106.973 19.8749 107.718 19.1249L105.166 17.4888C104.736 17.9999 104.014 18.2896 103.156 18.2896C102.004 18.2896 101.041 17.9103 100.644 16.8144ZM100.581 14.2176C101.098 13.3671 101.686 12.7893 102.863 12.7893C103.625 12.7893 104.507 13.0123 105.082 14.2176H100.581ZM79.1069 10.045V10.937C78.1225 9.98651 77.2082 9.98651 75.9874 9.98651C73.2448 9.98651 70.9837 12.41 70.9837 15.55C70.9837 18.69 73.2448 21.1135 75.9874 21.1135C77.0058 21.1135 78.0638 21.1135 79.1069 19.9463V21.1733H82.2473V10.045H79.1069ZM76.6155 18.121C75.1709 18.121 74.1241 17.1306 74.1241 15.55C74.1241 13.9695 75.1709 12.979 76.6155 12.979C78.0601 12.979 79.1069 13.9695 79.1069 15.55C79.1069 17.1306 78.0601 18.121 76.6155 18.121ZM36.6858 11.272C37.2511 10.4923 38.2979 9.98651 39.6797 9.98651C41.7942 9.98651 43.5947 11.5038 43.5947 14.3488V20.8185H40.4543V14.8124C40.4543 13.5059 39.6378 12.8947 38.6329 12.8947C37.4814 12.8947 36.6858 13.5691 36.6858 15.0653V20.8185H33.5454V10.045H36.6858V11.272Z" fill="#16151A"/>
<rect width="26.4362" height="5.28725" transform="matrix(0.704954 -0.709253 0.704954 0.709253 3.72705 22.5001)" fill="#2E62D9"/>
<rect width="26.4362" height="5.28725" transform="matrix(0.704954 0.709253 -0.704954 0.709253 7.4541 3.75)" fill="#FC5454"/>
<rect width="5.26358" height="5.28725" transform="matrix(0.704954 0.709253 -0.704954 0.709253 14.918 11.2595)" fill="#2D2047"/>
</svg>
