<svg width="40" height="40" viewBox="0 0 40 40" fill="none" xmlns="http://www.w3.org/2000/svg">
<rect x="9.4231" y="1.20056" width="22.3579" height="36.7308" rx="2.85714" transform="rotate(3.00935 9.4231 1.20056)" fill="#FC5454"/>
<rect x="6.8457" y="2.83545" width="22.3579" height="36.7308" rx="2.85714" transform="rotate(-5.13073 6.8457 2.83545)" fill="#2E62D9"/>
<path fill-rule="evenodd" clip-rule="evenodd" d="M9.78101 2.57189C9.48637 2.99444 9.30234 3.50183 9.27331 4.05411L8.41723 20.3381L9.87497 36.5734C9.92443 37.1242 10.1271 37.6244 10.4371 38.0357L19.961 38.5364L29.4648 37.6831C29.7592 37.2607 29.943 36.7536 29.972 36.2016L30.8278 19.9232L29.3695 3.68171C29.3201 3.13119 29.1176 2.63121 28.8078 2.21998L19.2793 1.71906L9.78101 2.57189Z" fill="#2D2047"/>
<rect x="11.4286" y="5" width="16.4286" height="27.1429" rx="1.42857" fill="white"/>
<circle cx="20" cy="35" r="1.42857" fill="white"/>
<path d="M14.6428 22.5C15.3571 23.2143 16.4285 23.5714 16.7857 22.1429C17.1428 20.7143 15 15 16.4285 15C17.8571 15 18.1197 17.3108 18.5714 18.2143C18.9285 18.9286 19.6428 20.7144 20 19.6429C20.238 18.9287 19.4536 17.2374 20.3571 16.7857C21.0714 16.4286 21.6377 17.5 22.1428 17.5001C22.5 17.5001 23.9285 17.1429 24.2857 11.4286" stroke="#2D2047" stroke-width="1.42857"/>
</svg>
