<svg width="25" height="24" viewBox="0 0 25 24" fill="none" xmlns="http://www.w3.org/2000/svg">
<path fill-rule="evenodd" clip-rule="evenodd" d="M17.8741 14.1262C17.4814 15.1798 17.008 16.2554 16.2701 17.1408C15.884 17.6042 15.1892 18.158 14.3194 17.8283C13.9618 17.6928 13.7101 17.4432 13.5402 17.2223C13.3665 16.9964 13.2289 16.736 13.1166 16.4787C12.6846 15.4887 12.3869 13.9571 12.1417 12.547C12.0767 12.173 12.0149 11.8047 11.955 11.448C11.871 10.9472 11.7908 10.4692 11.7109 10.0305C11.6991 10.0972 11.6874 10.1651 11.676 10.2342C11.5041 11.2727 11.3856 12.4895 11.2659 13.7187C11.2596 13.7825 11.2534 13.8464 11.2472 13.9102C11.1235 15.1779 10.9943 16.4652 10.7953 17.4686C10.6964 17.9673 10.5698 18.4531 10.3918 18.8522C10.2361 19.2014 9.92836 19.7459 9.31815 19.9493C8.95376 20.0708 8.56607 20.0891 8.18765 19.963C7.82411 19.8418 7.55492 19.6159 7.36146 19.3966C7.00325 18.9907 6.75911 18.431 6.58278 18.0195C6.55322 17.9506 6.52473 17.8836 6.49705 17.8185C6.33313 17.433 6.19731 17.1137 6.03505 16.8432C5.84445 16.5256 5.72192 16.4614 5.68569 16.4493C5.31503 16.3258 4.74472 16.4319 4.10323 16.7235C3.81114 16.8563 3.55474 17.0044 3.37067 17.1203C3.27948 17.1777 3.20816 17.2259 3.16145 17.2583C3.13814 17.2745 3.12111 17.2867 3.11096 17.2941L3.10154 17.3009C3.10154 17.3009 3.10192 17.3006 2.50192 16.5006C1.90192 15.7006 1.90235 15.7003 1.90235 15.7003L1.90392 15.6991L1.90667 15.6971L1.9144 15.6914L1.93854 15.6737C1.95841 15.6594 1.98582 15.6398 2.02013 15.616C2.08866 15.5683 2.1853 15.5032 2.30505 15.4278C2.54286 15.2781 2.88021 15.0825 3.27562 14.9028C4.00913 14.5693 5.18882 14.1755 6.31815 14.5519C7.03192 14.7899 7.4719 15.3507 7.75004 15.8143C7.99046 16.2149 8.18811 16.682 8.34725 17.058C8.37285 17.1185 8.39745 17.1766 8.42107 17.2317C8.51662 17.4547 8.59649 17.6289 8.66596 17.7636C8.7219 17.5844 8.7784 17.3575 8.83353 17.0795C9.00951 16.1923 9.13032 15.0109 9.25665 13.716C9.26362 13.6445 9.27061 13.5727 9.27763 13.5007C9.39508 12.294 9.51959 11.0148 9.70285 9.90764C9.80025 9.31913 9.91803 8.75471 10.0683 8.25859C10.2145 7.77606 10.4118 7.28752 10.7019 6.90063C10.8454 6.70926 11.1576 6.35948 11.67 6.30975C12.2447 6.25396 12.6184 6.60593 12.7828 6.81148C12.9538 7.0252 13.0682 7.27847 13.1487 7.49067C13.2347 7.71708 13.3099 7.97293 13.3774 8.23885C13.5773 9.02612 13.7587 10.108 13.9405 11.193C13.9975 11.5328 14.0545 11.8728 14.1121 12.2043C14.3598 13.6281 14.6169 14.8781 14.9231 15.6162C15.3422 15.0362 15.6724 14.3068 16.0001 13.4276C16.1263 13.089 16.2569 12.7129 16.3939 12.3184C16.638 11.6157 16.9022 10.8549 17.1975 10.1449C18.1722 7.80163 19.7033 5.40738 23.1389 4.06885L23.865 5.9324C21.1176 7.00281 19.8987 8.85856 19.0441 10.913C18.7654 11.5831 18.545 12.2203 18.3196 12.8717C18.1783 13.2804 18.035 13.6947 17.8741 14.1262Z" fill="white"/>
</svg>
