<svg width="24" height="24" viewBox="0 0 24 24" fill="none" xmlns="http://www.w3.org/2000/svg">
<circle cx="12" cy="12" r="7.5" fill="#F6F8F9" stroke="#CFD8E1"/>
<path d="M11.3551 13.5247C11.3551 13.226 11.4037 12.9647 11.5007 12.7407C11.6053 12.5092 11.7285 12.3151 11.8703 12.1583C12.0197 12.0015 12.2138 11.8148 12.4527 11.5983C12.7514 11.337 12.9717 11.113 13.1135 10.9263C13.2554 10.7322 13.3263 10.5007 13.3263 10.2319C13.3263 9.86605 13.1845 9.57485 12.9007 9.35831C12.617 9.13431 12.225 9.02231 11.7247 9.02231C10.8511 9.02231 10.1829 9.31725 9.71994 9.90711L8.90234 9.32471C9.21594 8.92151 9.61541 8.61165 10.1007 8.39511C10.5935 8.17858 11.161 8.07031 11.8031 8.07031C12.617 8.07031 13.2629 8.24951 13.7407 8.60791C14.2186 8.95885 14.4575 9.44418 14.4575 10.0639C14.4575 10.37 14.4053 10.6426 14.3007 10.8815C14.2037 11.113 14.0842 11.3071 13.9423 11.4639C13.8005 11.6207 13.6101 11.8074 13.3711 12.0239C13.065 12.3002 12.8373 12.5428 12.6879 12.7519C12.5461 12.961 12.4751 13.2186 12.4751 13.5247H11.3551ZM11.9263 16.0671C11.7173 16.0671 11.5418 15.9999 11.3999 15.8655C11.2655 15.7236 11.1983 15.5519 11.1983 15.3503C11.1983 15.1487 11.2655 14.9807 11.3999 14.8463C11.5418 14.7044 11.7173 14.6335 11.9263 14.6335C12.1354 14.6335 12.3071 14.7044 12.4415 14.8463C12.5759 14.9807 12.6431 15.1487 12.6431 15.3503C12.6431 15.5519 12.5722 15.7236 12.4303 15.8655C12.2959 15.9999 12.1279 16.0671 11.9263 16.0671Z" fill="#222835"/>
</svg>
